<?xml version="1.0" encoding="UTF-8" standalone="no"?>
<!DOCTYPE svg PUBLIC "-//W3C//DTD SVG 1.1//EN"
 "http://www.w3.org/Graphics/SVG/1.1/DTD/svg11.dtd">
<!-- Generated by graphviz version 2.47.3 (20210619.1520)
 -->
<!-- Title: dependencies Pages: 1 -->
<svg width="2111pt" height="247pt"
 viewBox="0.00 0.00 2111.00 246.80" xmlns="http://www.w3.org/2000/svg" xmlns:xlink="http://www.w3.org/1999/xlink">
<g id="graph0" class="graph" transform="scale(1 1) rotate(0) translate(4 242.8)">
<title>dependencies</title>
<polygon fill="white" stroke="transparent" points="-4,4 -4,-242.8 2107,-242.8 2107,4 -4,4"/>
<text text-anchor="middle" x="1051.5" y="-8.2" font-family="sans-serif" font-size="14.00">dependencies</text>
<g id="clust1" class="cluster">
<title>cluster_AppModule</title>
<polygon fill="none" stroke="black" stroke-dasharray="1,5" points="8,-32.8 8,-230.8 2095,-230.8 2095,-32.8 8,-32.8"/>
</g>
<g id="clust2" class="cluster">
<title>cluster_AppModule_declarations</title>
<polygon fill="none" stroke="black" points="168,-40.8 168,-92.8 2087,-92.8 2087,-40.8 168,-40.8"/>
</g>
<g id="clust16" class="cluster">
<title>cluster_AppModule_imports</title>
<polygon fill="none" stroke="black" points="16,-40.8 16,-92.8 160,-92.8 160,-40.8 16,-40.8"/>
</g>
<g id="clust18" class="cluster">
<title>cluster_AppModule_bootstrap</title>
<polygon fill="none" stroke="black" points="1060,-170.8 1060,-222.8 1184,-222.8 1184,-170.8 1060,-170.8"/>
</g>
<!-- AlertasComponent -->
<g id="node1" class="node">
<title>AlertasComponent</title>
<polygon fill="#ffffb3" stroke="black" points="2078.75,-84.8 1957.25,-84.8 1957.25,-48.8 2078.75,-48.8 2078.75,-84.8"/>
<text text-anchor="middle" x="2018" y="-62.6" font-family="Times,serif" font-size="14.00">AlertasComponent</text>
</g>
<!-- AppModule -->
<g id="node14" class="node">
<title>AppModule</title>
<polygon fill="#8dd3c7" stroke="black" points="1163.66,-149.8 1160.66,-153.8 1139.66,-153.8 1136.66,-149.8 1080.34,-149.8 1080.34,-113.8 1163.66,-113.8 1163.66,-149.8"/>
<text text-anchor="middle" x="1122" y="-127.6" font-family="Times,serif" font-size="14.00">AppModule</text>
</g>
<!-- AlertasComponent&#45;&gt;AppModule -->
<g id="edge1" class="edge">
<title>AlertasComponent&#45;&gt;AppModule</title>
<path fill="none" stroke="black" d="M2018,-84.89C2018,-107.93 2018,-144.8 2018,-144.8 2018,-144.8 1173.72,-144.8 1173.72,-144.8"/>
<polygon fill="black" stroke="black" points="1173.72,-141.3 1163.72,-144.8 1173.72,-148.3 1173.72,-141.3"/>
</g>
<!-- AppComponent -->
<g id="node2" class="node">
<title>AppComponent</title>
<polygon fill="#ffffb3" stroke="black" points="1938.94,-84.8 1833.06,-84.8 1833.06,-48.8 1938.94,-48.8 1938.94,-84.8"/>
<text text-anchor="middle" x="1886" y="-62.6" font-family="Times,serif" font-size="14.00">AppComponent</text>
</g>
<!-- AppComponent&#45;&gt;AppModule -->
<g id="edge2" class="edge">
<title>AppComponent&#45;&gt;AppModule</title>
<path fill="none" stroke="black" d="M1886,-84.84C1886,-106.46 1886,-139.8 1886,-139.8 1886,-139.8 1173.89,-139.8 1173.89,-139.8"/>
<polygon fill="black" stroke="black" points="1173.89,-136.3 1163.89,-139.8 1173.89,-143.3 1173.89,-136.3"/>
</g>
<!-- CadastrarComponent -->
<g id="node3" class="node">
<title>CadastrarComponent</title>
<polygon fill="#ffffb3" stroke="black" points="1815.47,-84.8 1680.53,-84.8 1680.53,-48.8 1815.47,-48.8 1815.47,-84.8"/>
<text text-anchor="middle" x="1748" y="-62.6" font-family="Times,serif" font-size="14.00">CadastrarComponent</text>
</g>
<!-- CadastrarComponent&#45;&gt;AppModule -->
<g id="edge3" class="edge">
<title>CadastrarComponent&#45;&gt;AppModule</title>
<path fill="none" stroke="black" d="M1748,-85.02C1748,-105.17 1748,-134.8 1748,-134.8 1748,-134.8 1174.05,-134.8 1174.05,-134.8"/>
<polygon fill="black" stroke="black" points="1174.05,-131.3 1164.05,-134.8 1174.05,-138.3 1174.05,-131.3"/>
</g>
<!-- EntrarComponent -->
<g id="node4" class="node">
<title>EntrarComponent</title>
<polygon fill="#ffffb3" stroke="black" points="1662.31,-84.8 1545.69,-84.8 1545.69,-48.8 1662.31,-48.8 1662.31,-84.8"/>
<text text-anchor="middle" x="1604" y="-62.6" font-family="Times,serif" font-size="14.00">EntrarComponent</text>
</g>
<!-- EntrarComponent&#45;&gt;AppModule -->
<g id="edge4" class="edge">
<title>EntrarComponent&#45;&gt;AppModule</title>
<path fill="none" stroke="black" d="M1604,-85.02C1604,-103.63 1604,-129.8 1604,-129.8 1604,-129.8 1173.93,-129.8 1173.93,-129.8"/>
<polygon fill="black" stroke="black" points="1173.93,-126.3 1163.93,-129.8 1173.93,-133.3 1173.93,-126.3"/>
</g>
<!-- FooterComponent -->
<g id="node5" class="node">
<title>FooterComponent</title>
<polygon fill="#ffffb3" stroke="black" points="1527.88,-84.8 1410.12,-84.8 1410.12,-48.8 1527.88,-48.8 1527.88,-84.8"/>
<text text-anchor="middle" x="1469" y="-62.6" font-family="Times,serif" font-size="14.00">FooterComponent</text>
</g>
<!-- FooterComponent&#45;&gt;AppModule -->
<g id="edge5" class="edge">
<title>FooterComponent&#45;&gt;AppModule</title>
<path fill="none" stroke="black" d="M1469,-84.83C1469,-101.86 1469,-124.8 1469,-124.8 1469,-124.8 1173.86,-124.8 1173.86,-124.8"/>
<polygon fill="black" stroke="black" points="1173.86,-121.3 1163.86,-124.8 1173.86,-128.3 1173.86,-121.3"/>
</g>
<!-- InicioComponent -->
<g id="node6" class="node">
<title>InicioComponent</title>
<polygon fill="#ffffb3" stroke="black" points="1391.99,-84.8 1278.01,-84.8 1278.01,-48.8 1391.99,-48.8 1391.99,-84.8"/>
<text text-anchor="middle" x="1335" y="-62.6" font-family="Times,serif" font-size="14.00">InicioComponent</text>
</g>
<!-- InicioComponent&#45;&gt;AppModule -->
<g id="edge6" class="edge">
<title>InicioComponent&#45;&gt;AppModule</title>
<path fill="none" stroke="black" d="M1335,-85.04C1335,-100.37 1335,-119.8 1335,-119.8 1335,-119.8 1173.83,-119.8 1173.83,-119.8"/>
<polygon fill="black" stroke="black" points="1173.83,-116.3 1163.83,-119.8 1173.83,-123.3 1173.83,-116.3"/>
</g>
<!-- MenuComponent -->
<g id="node7" class="node">
<title>MenuComponent</title>
<polygon fill="#ffffb3" stroke="black" points="1259.99,-84.8 1146.01,-84.8 1146.01,-48.8 1259.99,-48.8 1259.99,-84.8"/>
<text text-anchor="middle" x="1203" y="-62.6" font-family="Times,serif" font-size="14.00">MenuComponent</text>
</g>
<!-- MenuComponent&#45;&gt;AppModule -->
<g id="edge7" class="edge">
<title>MenuComponent&#45;&gt;AppModule</title>
<path fill="none" stroke="black" d="M1154.92,-84.91C1154.92,-84.91 1154.92,-103.79 1154.92,-103.79"/>
<polygon fill="black" stroke="black" points="1151.42,-103.79 1154.92,-113.79 1158.42,-103.79 1151.42,-103.79"/>
</g>
<!-- PostagemDeleteComponent -->
<g id="node8" class="node">
<title>PostagemDeleteComponent</title>
<polygon fill="#ffffb3" stroke="black" points="1128.3,-84.8 955.7,-84.8 955.7,-48.8 1128.3,-48.8 1128.3,-84.8"/>
<text text-anchor="middle" x="1042" y="-62.6" font-family="Times,serif" font-size="14.00">PostagemDeleteComponent</text>
</g>
<!-- PostagemDeleteComponent&#45;&gt;AppModule -->
<g id="edge8" class="edge">
<title>PostagemDeleteComponent&#45;&gt;AppModule</title>
<path fill="none" stroke="black" d="M1104.16,-84.91C1104.16,-84.91 1104.16,-103.79 1104.16,-103.79"/>
<polygon fill="black" stroke="black" points="1100.66,-103.79 1104.16,-113.79 1107.66,-103.79 1100.66,-103.79"/>
</g>
<!-- PostagemEditComponent -->
<g id="node9" class="node">
<title>PostagemEditComponent</title>
<polygon fill="#ffffb3" stroke="black" points="937.6,-84.8 778.4,-84.8 778.4,-48.8 937.6,-48.8 937.6,-84.8"/>
<text text-anchor="middle" x="858" y="-62.6" font-family="Times,serif" font-size="14.00">PostagemEditComponent</text>
</g>
<!-- PostagemEditComponent&#45;&gt;AppModule -->
<g id="edge9" class="edge">
<title>PostagemEditComponent&#45;&gt;AppModule</title>
<path fill="none" stroke="black" d="M858,-85.04C858,-100.37 858,-119.8 858,-119.8 858,-119.8 1070.17,-119.8 1070.17,-119.8"/>
<polygon fill="black" stroke="black" points="1070.17,-123.3 1080.17,-119.8 1070.17,-116.3 1070.17,-123.3"/>
</g>
<!-- TemaComponent -->
<g id="node10" class="node">
<title>TemaComponent</title>
<polygon fill="#ffffb3" stroke="black" points="760.7,-84.8 647.3,-84.8 647.3,-48.8 760.7,-48.8 760.7,-84.8"/>
<text text-anchor="middle" x="704" y="-62.6" font-family="Times,serif" font-size="14.00">TemaComponent</text>
</g>
<!-- TemaComponent&#45;&gt;AppModule -->
<g id="edge10" class="edge">
<title>TemaComponent&#45;&gt;AppModule</title>
<path fill="none" stroke="black" d="M704,-84.83C704,-101.86 704,-124.8 704,-124.8 704,-124.8 1070.01,-124.8 1070.01,-124.8"/>
<polygon fill="black" stroke="black" points="1070.01,-128.3 1080.01,-124.8 1070.01,-121.3 1070.01,-128.3"/>
</g>
<!-- TemaDeleteComponent -->
<g id="node11" class="node">
<title>TemaDeleteComponent</title>
<polygon fill="#ffffb3" stroke="black" points="629.74,-84.8 480.26,-84.8 480.26,-48.8 629.74,-48.8 629.74,-84.8"/>
<text text-anchor="middle" x="555" y="-62.6" font-family="Times,serif" font-size="14.00">TemaDeleteComponent</text>
</g>
<!-- TemaDeleteComponent&#45;&gt;AppModule -->
<g id="edge11" class="edge">
<title>TemaDeleteComponent&#45;&gt;AppModule</title>
<path fill="none" stroke="black" d="M555,-85.02C555,-103.63 555,-129.8 555,-129.8 555,-129.8 1070.31,-129.8 1070.31,-129.8"/>
<polygon fill="black" stroke="black" points="1070.31,-133.3 1080.31,-129.8 1070.31,-126.3 1070.31,-133.3"/>
</g>
<!-- TemaEditComponent -->
<g id="node12" class="node">
<title>TemaEditComponent</title>
<polygon fill="#ffffb3" stroke="black" points="462.04,-84.8 325.96,-84.8 325.96,-48.8 462.04,-48.8 462.04,-84.8"/>
<text text-anchor="middle" x="394" y="-62.6" font-family="Times,serif" font-size="14.00">TemaEditComponent</text>
</g>
<!-- TemaEditComponent&#45;&gt;AppModule -->
<g id="edge12" class="edge">
<title>TemaEditComponent&#45;&gt;AppModule</title>
<path fill="none" stroke="black" d="M394,-85.02C394,-105.17 394,-134.8 394,-134.8 394,-134.8 1070.24,-134.8 1070.24,-134.8"/>
<polygon fill="black" stroke="black" points="1070.24,-138.3 1080.24,-134.8 1070.24,-131.3 1070.24,-138.3"/>
</g>
<!-- UserEditComponent -->
<g id="node13" class="node">
<title>UserEditComponent</title>
<polygon fill="#ffffb3" stroke="black" points="307.59,-84.8 176.41,-84.8 176.41,-48.8 307.59,-48.8 307.59,-84.8"/>
<text text-anchor="middle" x="242" y="-62.6" font-family="Times,serif" font-size="14.00">UserEditComponent</text>
</g>
<!-- UserEditComponent&#45;&gt;AppModule -->
<g id="edge13" class="edge">
<title>UserEditComponent&#45;&gt;AppModule</title>
<path fill="none" stroke="black" d="M242,-84.84C242,-106.46 242,-139.8 242,-139.8 242,-139.8 1070.15,-139.8 1070.15,-139.8"/>
<polygon fill="black" stroke="black" points="1070.15,-143.3 1080.15,-139.8 1070.15,-136.3 1070.15,-143.3"/>
</g>
<!-- AppComponent  -->
<g id="node16" class="node">
<title>AppComponent </title>
<polygon fill="#80b1d3" stroke="black" points="1176.44,-214.8 1067.56,-214.8 1067.56,-178.8 1176.44,-178.8 1176.44,-214.8"/>
<text text-anchor="middle" x="1122" y="-192.6" font-family="Times,serif" font-size="14.00">AppComponent </text>
</g>
<!-- AppModule&#45;&gt;AppComponent  -->
<g id="edge15" class="edge">
<title>AppModule&#45;&gt;AppComponent </title>
<path fill="none" stroke="black" stroke-dasharray="1,5" d="M1122,-149.91C1122,-149.91 1122,-168.79 1122,-168.79"/>
<polygon fill="black" stroke="black" points="1118.5,-168.79 1122,-178.79 1125.5,-168.79 1118.5,-168.79"/>
</g>
<!-- AppRoutingModule -->
<g id="node15" class="node">
<title>AppRoutingModule</title>
<polygon fill="#8dd3c7" stroke="black" points="152.27,-84.8 149.27,-88.8 128.27,-88.8 125.27,-84.8 23.73,-84.8 23.73,-48.8 152.27,-48.8 152.27,-84.8"/>
<text text-anchor="middle" x="88" y="-62.6" font-family="Times,serif" font-size="14.00">AppRoutingModule</text>
</g>
<!-- AppRoutingModule&#45;&gt;AppModule -->
<g id="edge14" class="edge">
<title>AppRoutingModule&#45;&gt;AppModule</title>
<path fill="none" stroke="black" d="M88,-84.89C88,-107.93 88,-144.8 88,-144.8 88,-144.8 1070.19,-144.8 1070.19,-144.8"/>
<polygon fill="black" stroke="black" points="1070.19,-148.3 1080.19,-144.8 1070.19,-141.3 1070.19,-148.3"/>
</g>
</g>
</svg>
